{"title":"August Rush (2007) dvd rip By Haunting Summer","uid":5821445,"size":732385646,"categoryP":"video","categoryS":"movies","magnet":"?xt=urn:btih:200749ab8bc079c0fcda5301d63655586ab465ef&amp;dn=August+Rush+%282007%29+dvd+rip+By+Haunting+Summer&amp;tr=udp%3A%2F%2Ftracker.openbittorrent.com%3A80&amp;tr=udp%3A%2F%2Fopen.demonii.com%3A1337&amp;tr=udp%3A%2F%2Ftracker.coppersurfer.tk%3A6969&amp;tr=udp%3A%2F%2Fexodus.desync.com%3A6969","seeders":1,"leechers":0,"uploader":"HaUnTiNg.SuMMeR","files":-1,"time":1284070528,"description":"Format                           : AVI\nFormat/Info                      : Audio Video Interleave\nFile size                        : 696 MiB\nDuration                         : 1h 53mn\nOverall bit rate                 : 857 Kbps\nWriting application              : VirtualDubMod 1.5.10.2 (build 2540/release)\nWriting library                  : VirtualDubMod build 2540/release\n\nVideo\nID                               : 0\nFormat                           : MPEG-4 Visual\nFormat profile                   : Advanced Simple@L5\nFormat settings, BVOP            : Yes\nFormat settings, QPel            : No\nFormat settings, GMC             : No warppoints\nFormat settings, Matrix          : Default (H.263)\nMuxing mode                      : Packed bitstream\nCodec ID                         : XVID\nCodec ID/Hint                    : XviD\nDuration                         : 1h 53mn\nBit rate                         : 718 Kbps\nWidth                            : 624 pixels\nHeight                           : 256 pixels\nDisplay aspect ratio             : 2.40:1\nFrame rate                       : 23.976 fps\nColor space                      : YUV\nChroma subsampling               : 4:2:0\nBit depth                        : 8 bits\nScan type                        : Progressive\nBits/(Pixel*Frame)               : 0.188\nStream size                      : 584 MiB (84%)\nWriting library                  : XviD 1.1.2 (UTC 2006-11-01)\n\nAudio\nID                               : 1\nFormat                           : MPEG Audio\nFormat version                   : Version 1\nFormat profile                   : Layer 3\nMode                             : Joint stereo\nCodec ID                         : 55\nCodec ID/Hint                    : MP3\nDuration                         : 1h 53mn\nBit rate mode                    : Variable\nBit rate                         : 128 Kbps\nChannel(s)                       : 2 channels\nSampling rate                    : 48.0 KHz\nStream size                      : 102 MiB (15%)\nAlignment                        : Aligned on interleaves\nInterleave, duration             : 24 ms (0.58 video frame)\nInterleave, preload duration     : 128 ms\n\n__________________PLOT____________________________________\n\nA drama with fairy tale elements, where an orphaned musical prodigy uses his gift as a clue to finding his birth parents. \n__________________________SCREEN SHOT_____________________________________________\n\n\n__________________________http://bayimg.com/bAopkAAcN____________________________","torrent":{"xt":"urn:btih:200749ab8bc079c0fcda5301d63655586ab465ef","amp;dn":"August+Rush+%282007%29+dvd+rip+By+Haunting+Summer","amp;tr":["udp%3A%2F%2Ftracker.openbittorrent.com%3A80","udp%3A%2F%2Fopen.demonii.com%3A1337","udp%3A%2F%2Ftracker.coppersurfer.tk%3A6969","udp%3A%2F%2Fexodus.desync.com%3A6969"],"infoHash":"200749ab8bc079c0fcda5301d63655586ab465ef","infoHashBuffer":{"type":"Buffer","data":[32,7,73,171,139,192,121,192,252,218,83,1,214,54,85,88,106,180,101,239]},"announce":[],"urlList":[]}}